<svg viewBox="0 0 100 89.684998" xmlns="http://www.w3.org/2000/svg">
	<path
		style="baseline-shift:baseline;display:inline;overflow:visible;vector-effect:none;fill:#ea1754;stroke-width:1;stroke-miterlimit:12.2;paint-order:stroke fill markers;enable-background:accumulate;stop-color:#000000"
		d="M 50.345791,10.77337 C 28.578158,10.507415 10.673962,27.976631 10.408007,49.744265 10.142052,71.511899 27.614058,89.416128 49.381691,89.682083 71.149325,89.948038 89.053555,72.476033 89.31951,50.708399 89.585465,28.940765 72.113425,11.039325 50.345791,10.77337 Z m -0.04711,3.856011 C 69.981766,14.869868 85.701195,30.978164 85.460709,50.661253 85.220222,70.34434 69.111891,86.066558 49.428803,85.826072 29.745716,85.585585 14.026322,69.474499 14.266808,49.791412 14.507295,30.108324 30.615591,14.388895 50.298678,14.629381 Z"
	/>

	<path
		style="baseline-shift:baseline;display:inline;overflow:visible;vector-effect:none;fill:#ffffff;stroke-width:1;stroke-miterlimit:12.2;paint-order:stroke fill markers;enable-background:accumulate;stop-color:#000000"
		d="M 50.302155,14.344784 C 30.50121,14.102858 14.221347,29.986954 13.979421,49.787901 13.737495,69.588846 29.624381,85.868743 49.425326,86.110669 69.226272,86.352595 85.50617,70.465709 85.748096,50.664764 85.990022,30.863818 70.103102,14.58671 50.302155,14.344784 Z m -0.03491,2.857131 c 18.256841,0.223061 32.84678,15.171102 32.62372,33.427941 C 82.667904,68.886693 67.717073,83.476599 49.460234,83.253538 31.203397,83.030478 16.613491,68.079646 16.836552,49.822809 17.059612,31.56597 32.01041,16.978855 50.267247,17.201915 Z"
		id="path2"
	/>

	<g>
		<path
			style="display:inline;fill:#ffffff;fill-opacity:1;stroke-width:2;stroke-miterlimit:12.2;paint-order:stroke fill markers"
			d="M 49.428272,51.442487 49.2378,62.378226 59.57918,65.939491 49.119811,69.13767 48.928511,80.073397 42.654738,71.11424 32.195128,74.311631 38.777095,65.576383 32.504,56.616753 42.845651,60.177237 Z"
		/>
		<path
			style="display:inline;fill:#ffffff;fill-opacity:1;stroke-width:2;stroke-miterlimit:12.2;paint-order:stroke fill markers"
			d="m 59.0485,34.065514 7.867993,7.597457 9.657345,-5.134432 -4.794272,9.830653 7.867421,7.598055 -10.831016,-1.521782 -4.795012,9.830289 -1.899667,-10.771169 -10.8309,-1.5226 9.656962,-5.135164 z"
		/>
		<path
			style="display:inline;fill:#ffffff;fill-opacity:1;stroke-width:2;stroke-miterlimit:12.2;paint-order:stroke fill markers"
			d="m 38.485141,22.511917 4.097603,10.140825 10.910788,-0.762541 -8.378272,7.030741 4.09684,10.141137 -9.275664,-5.795588 -8.378799,7.030108 2.645597,-10.612613 -9.275224,-5.79629 10.910732,-0.763366 z"
		/>
	</g>

	<path
		style="font-weight:bold;font-size:6.86174px;line-height:0.88;font-family:'FONTSPRING DEMO - Mid Century Sans';-inkscape-font-specification:'FONTSPRING DEMO - Mid Century Sans Bold';letter-spacing:0.551296px;fill:#ffffff;stroke-width:1.99998;stroke-miterlimit:12.2;paint-order:stroke fill markers"
		d="M 7.4674679,40.435095 7.9299878,38.831785 0.46251857,36.677587 -1.6025217e-7,38.280898 Z m -3.6475896,-12.125624 4.3209849,2.011054 -5.7726096,1.10793 -0.8246773,1.771913 7.0462101,3.279418 0.6848193,-1.471413 -4.8805365,-2.271479 6.5202448,-1.251627 0.636593,-1.367795 -7.0462092,-3.279416 z m 13.0001507,-11.803242 -2.760486,3.051142 1.033999,0.935496 1.525934,-1.686602 c 0.503283,0.840662 0.429439,1.791108 -0.360367,2.664072 -0.935498,1.033997 -2.333921,1.063477 -3.427247,0.07431 -1.093324,-0.98918 -1.203521,-2.383566 -0.268024,-3.417564 0.598106,-0.661081 1.362494,-0.909699 2.113971,-0.769262 l 1.226883,-1.356061 c -1.512241,-0.628365 -3.232722,-0.242918 -4.459605,1.113144 -1.5719442,1.737456 -1.4762628,4.135963 0.244241,5.69257 1.720505,1.556608 4.116591,1.412498 5.688533,-0.324957 1.579611,-1.745932 1.476264,-4.135963 -0.244241,-5.692571 z m 7.972022,-0.552005 c 1.922441,-1.339394 2.368662,-3.69797 1.042335,-5.601656 -1.32633,-1.903684 -3.693438,-2.3021692 -5.615879,-0.9627748 -1.92244,1.3393948 -2.36866,3.6979708 -1.042332,5.6016558 1.326328,1.903684 3.693437,2.30217 5.615876,0.962775 z M 23.929613,14.71636 c -1.144088,0.797105 -2.513313,0.511307 -3.356151,-0.698422 -0.842839,-1.209731 -0.636601,-2.593177 0.507486,-3.39028 1.144086,-0.7971038 2.513311,-0.511308 3.356151,0.698422 0.842839,1.209731 0.6366,2.593177 -0.507486,3.39028 z m 6.042276,-2.143128 2.993682,-1.224724 C 35.229343,10.42239 36.079925,8.456716 35.175447,6.2458338 34.270966,4.0349525 32.28654,3.2290906 30.022766,4.1552082 l -2.993682,1.2247247 z m 0.973192,-2.028183 -1.800304,-4.4006062 1.31172,-0.5366301 c 1.491554,-0.6101982 2.541226,-0.1875535 3.142769,1.2828415 0.601545,1.470395 0.149087,2.5075667 -1.342465,3.1177658 z M 50.344127,0.10203284 49.215486,5.4494518 47.355165,0.28401595 45.894908,0.37292364 44.68641,5.7252038 42.928763,0.55351751 41.194706,0.65909638 43.925865,8.2791792 45.591471,8.177772 46.773385,2.953065 48.580433,7.9957892 50.246039,7.8943678 52.021142,-8.0070481e-5 Z M 61.970076,3.1490088 62.240975,1.6648511 55.922063,0.51147583 54.52652,8.1571363 60.845433,9.3105104 61.116332,7.8263544 56.438988,6.97261 l 0.297579,-1.6303252 4.317549,0.7880704 0.2709,-1.484156 -4.31755,-0.7880721 0.285265,-1.5628624 z m 13.595507,3.8905716 -6.216678,-3.053718 -0.665167,1.354128 2.359466,1.1590012 -2.761449,5.6216854 1.497749,0.735715 2.761447,-5.6216864 2.359466,1.1590031 z m 2.371688,11.2177136 1.545001,1.196975 0.394454,-3.439063 c 0.977084,0.381075 1.973934,0.08346 2.708919,-0.865211 0.92398,-1.192631 0.753021,-2.539568 -0.457678,-3.477548 l -3.469472,-2.6879467 -4.759904,6.1438577 1.31912,1.021979 1.742966,-2.249737 1.409472,1.091978 z m 1.116365,-7.058182 2.014823,1.560969 c 0.478858,0.370992 0.555951,0.850004 0.170958,1.346935 -0.377993,0.487894 -0.861075,0.532914 -1.339936,0.161922 L 77.884659,12.70797 Z m 3.977101,12.345233 c 1.419525,1.673478 3.011164,1.942014 4.440593,0.729506 l 3.791472,-3.216107 -1.042464,-1.22896 -3.599718,3.053453 c -0.836739,0.709763 -1.670459,0.592653 -2.439367,-0.313814 -0.761514,-0.89775 -0.733671,-1.730689 0.103064,-2.44045 l 3.599718,-3.053455 -1.079429,-1.272539 -3.791471,3.216107 c -1.429428,1.21251 -1.416712,2.83535 0.0176,4.526259 z m 5.116018,7.494775 c 1.038135,1.907366 2.385715,2.56626 3.801181,1.795854 1.365273,-0.743087 1.460977,-1.667022 0.566311,-3.860678 -0.665314,-1.628818 -0.748918,-1.973692 -0.226903,-2.257813 0.391512,-0.213091 0.95494,0.10485 1.413905,0.948111 0.442574,0.81314 0.430106,1.483569 -0.01186,2.010397 l 0.835972,1.535933 c 1.191188,-0.895576 1.462646,-2.500738 0.511933,-4.247485 -0.945251,-1.736707 -2.383181,-2.346424 -3.658105,-1.652514 -1.355231,0.737623 -1.508372,1.627758 -0.575459,3.891683 0.68717,1.668972 0.717915,1.964541 0.226016,2.232271 -0.431667,0.234947 -1.022416,-0.133195 -1.514165,-1.036681 -0.535459,-0.983798 -0.634179,-1.762877 -0.07175,-2.355273 L 88.62425,26.537109 c -1.385609,1.040434 -1.493781,2.6348 -0.477499,4.502011 z M 100,39.891665 l -2.040345,-6.61886 -1.441733,0.444432 0.77439,2.512107 -5.985373,1.845066 0.491569,1.594643 5.98537,-1.845065 0.774389,2.512109 z"
	/>
</svg>
