<svg viewBox="0 0 100 94.982002" xmlns="http://www.w3.org/2000/svg">
	<path
		fill="#000000"
		d="m 27.288544,-4.6449896e-7 h 23.14982 V 17.861913 c 0,0 1.912907,0.962546 2.046932,1.912907 0.134025,0.950361 0.536101,0.68231 2.851083,0 2.314982,-0.682311 1.632672,1.766696 2.314982,1.900722 0.682311,0.134025 3.131318,1.218411 3.947654,0.950361 0.816335,-0.268051 2.436823,-0.450813 2.717058,0 0.280234,0.450812 -0.280235,3.082581 2.717057,1.851985 2.997293,-1.230595 3.655235,0.548286 4.34973,0.962546 0.694494,0.414259 4.349729,-1.096571 5.848376,0 1.498646,1.09657 3.131319,1.218411 3.947649,0 0.81634,-1.218412 5.30009,-2.656138 6.79874,-1.291517 1.49865,1.364621 1.7667,1.900722 3.39937,2.107852 1.63267,0.20713 2.31498,1.023466 3.13132,1.218412 0.81633,0.194946 1.75451,-0.219314 1.75451,1.766697 0,1.986011 -0.28023,11.282491 0,12.245036 0.28023,0.962545 1.90072,2.168773 1.90072,3.399369 0,1.230595 0.13403,2.851083 0.95036,3.533393 0.81634,0.682311 1.218415,3.533394 0.54829,4.215704 -0.67013,0.682311 -0.81634,2.583033 -1.09657,3.655235 -0.28024,1.072202 0,2.717058 -0.40208,3.655235 -0.40207,0.938177 0.68231,1.632672 -1.36462,2.168773 -2.04693,0.536101 -4.34973,2.046931 -5.30009,0.950361 -0.95036,-1.096571 -2.16877,-0.950361 -2.58303,-0.268051 -0.41426,0.682311 0.68231,1.900722 0.54828,2.717058 -0.13402,0.816336 -3.39937,2.997293 -4.87364,3.947654 -1.47428,0.950361 -4.16697,2.668321 -5.385383,1.71796 -1.218411,-0.950361 -3.265343,-1.766697 -3.131318,-0.41426 0.134026,1.352437 2.034748,2.997293 -0.414259,3.131318 -2.449008,0.134025 -3.655235,1.218411 -3.801445,2.717058 -0.146209,1.498646 -1.084386,1.912906 -1.632671,3.265343 a 15.254513,15.254513 0 0 0 -1.218412,4.215704 6.5063179,6.5063179 0 0 0 0.682311,4.081683 c 0.68231,0.95036 -0.268051,3.39936 0.816335,4.76399 1.084387,1.36462 0.548286,2.43682 -0.950361,1.90072 a 30.143503,30.143503 0 0 0 -5.275722,-1.02347 c -1.09657,-0.13402 -5.166065,-3.39937 -6.396661,-3.81363 -1.230595,-0.41426 -1.498646,-1.49864 -2.583032,-5.30009 C 54.21544,80.90253 53.53313,80.220219 52.168509,79.123649 50.803888,78.027078 48.367065,73.823558 47.416704,71.922836 a 53.366428,53.366428 0 0 0 -3.545578,-6.859657 c -1.218412,-1.632672 -3.655235,-4.361914 -5.312275,-3.813629 -1.657039,0.548286 -9.247744,-0.68231 -9.930054,2.436824 -0.682311,3.119133 -2.302798,4.349729 -3.655235,3.655234 -1.352437,-0.694494 -8.297383,-4.483754 -8.979694,-5.9824 -0.68231,-1.498647 -1.364621,-2.01038 -1.632671,-4.325362 A 10.210289,10.210289 0 0 0 9.8774418,50.941788 c -1.340253,-0.572653 -3.947653,-1.376805 -4.61778,-3.423736 A 5.0807764,5.0807764 0 0 0 1.3120088,43.984658 C -0.18663825,43.862817 0.00830775,41.803701 0.00830775,41.803701 L 27.215439,41.669676 Z"
	/>
</svg>
